<svg xmlns="http://www.w3.org/2000/svg" width="266.879" height="133.91" viewBox="0 0 266.879 133.91"><path d="M266.879 69.84v64.07h-266.879v-64.31c.237 2.096.43 4.196.719 6.284 2.017 14.563 8.168 27.159 18.447 37.619 13.198 13.431 29.377 20.022 48.173 20.097 18.959.072 37.918.016 56.878.016h1.254v-11.193h-1.546c-10.8 0-21.599-.006-32.399.002-6.999.006-14 .133-20.997.012-4.303-.076-8.669-.127-12.886-.869-13.577-2.394-24.871-8.978-33.486-19.762-11.515-14.415-15.187-30.82-10.761-48.677 6.238-25.173 28.4-42.156 54.291-42.156h56.518c.32 0 .644-.031.959.005.792.091 1.042-.244 1.026-1.025-.042-2.159-.014-4.319-.014-6.479v-3.213h-1.552c-14.32-.006-28.639-.006-42.958-.021-5.199-.005-10.402-.193-15.595-.019-3.979.134-8.004.386-11.902 1.138-17.003 3.284-30.723 11.962-41.091 25.823-6.754 9.026-10.864 19.185-12.363 30.375-.28 2.089-.479 4.188-.715 6.283v-63.84h266.879v63.6c-.06-.223-.146-.443-.172-.67-.287-2.578-.402-5.187-.869-7.73-2.91-15.875-10.469-29.135-22.842-39.507-11.647-9.766-25.143-14.983-40.372-15.425-5.793-.168-11.596-.026-17.392-.024-14.319.005-28.64.012-42.958.018h-1.379v10.712h1.486c19.121 0 38.238-.008 57.357.003 10.997.007 21.11 3.056 30.279 9.092 20.695 13.626 30.13 38.812 22.838 62.521-6.188 20.112-19.934 32.824-40.25 38.323-5.912 1.601-11.995 1.563-18.083 1.536-17.278-.079-34.56-.026-51.838-.026h-1.286v11.191h1.171c18.999 0 37.999.056 56.996-.044 3.978-.021 8.007-.312 11.92-.994 16.171-2.822 29.533-10.646 40.013-23.271 8.041-9.689 12.934-20.818 14.654-33.311.285-2.046.489-4.101.727-6.154zm-97.199 8.573h1.637c15.033.015 30.066.036 45.1.042 8.033.004 14.666-6.604 14.699-14.623.014-3.798.002-7.597.002-11.395-.002-8.646-6.507-15.17-15.143-15.171-20.471-.003-40.941 0-61.413.001h-1.351v59.149h16.469v-18.003zm-133.829-41.078v59.082h16.484v-18.862h61.345v-15.127h-61.282v-10.895h61.291v-14.198h-77.838zm105.426 59.11v-59.115h-15.657v59.115h15.657z" fill="none"/><path fill="#1E117B" d="M0 64.113c.236-2.095.435-4.194.715-6.283 1.5-11.19 5.609-21.349 12.363-30.375 10.368-13.861 24.088-22.538 41.09-25.822 3.898-.752 7.924-1.004 11.902-1.138 5.192-.175 10.396.013 15.595.019 14.319.015 28.639.015 42.958.021h1.552v3.213c0 2.16-.028 4.32.014 6.479.016.781-.234 1.116-1.026 1.025-.316-.036-.639-.005-.959-.005h-56.518c-25.891 0-48.052 16.982-54.291 42.156-4.426 17.856-.754 34.261 10.76 48.675 8.615 10.784 19.909 17.368 33.486 19.762 4.217.742 8.583.793 12.886.869 6.997.121 13.998-.006 20.997-.012 10.8-.008 21.599-.002 32.399-.002h1.546v11.193h-1.254c-18.959 0-37.919.058-56.878-.016-18.796-.072-34.976-6.666-48.173-20.097-10.277-10.459-16.429-23.054-18.445-37.618-.289-2.088-.482-4.188-.719-6.284v-5.76zM266.879 69.84c-.238 2.053-.442 4.108-.726 6.153-1.722 12.491-6.612 23.62-14.655 33.31-10.479 12.627-23.842 20.45-40.012 23.272-3.914.684-7.941.974-11.92.993-18.997.101-37.997.045-56.996.045h-1.171v-11.191h1.286c17.279 0 34.559-.053 51.838.026 6.088.028 12.171.063 18.083-1.536 20.315-5.499 34.062-18.211 40.25-38.323 7.292-23.708-2.142-48.894-22.838-62.521-9.169-6.037-19.282-9.085-30.278-9.092-19.121-.011-38.238-.003-57.357-.003h-1.487v-10.712h1.379l42.958-.018c5.796-.002 11.6-.144 17.393.024 15.229.442 28.725 5.659 40.371 15.425 12.375 10.372 19.933 23.633 22.844 39.507.466 2.544.582 5.153.869 7.73.023.227.111.447.172.67-.003 2.081-.003 4.161-.003 6.241zM169.68 78.413v18.003h-16.469v-59.149h1.351c20.472 0 40.942-.004 61.413-.001 8.636.001 15.141 6.525 15.143 15.171 0 3.798.012 7.597-.002 11.395-.033 8.021-6.666 14.627-14.699 14.623-15.033-.006-30.065-.027-45.1-.042h-1.637zm.006-15.838h41.319c4.371 0 5.394-1.051 5.246-5.395-.097-2.842-1.242-3.964-4.09-3.965-13.761-.003-27.52-.002-41.279.002-.385 0-.771.041-1.194.065-.002 3.114-.002 6.133-.002 9.293zM35.851 37.335h77.838v14.198h-61.291v10.895h61.282v15.127h-61.345v18.862h-16.484v-59.082zM141.277 96.445h-15.657v-59.115h15.657v59.115z"/></svg>